<?xml version="1.0" encoding="UTF-8" standalone="no"?>
<!DOCTYPE svg PUBLIC "-//W3C//DTD SVG 1.1//EN" "http://www.w3.org/Graphics/SVG/1.1/DTD/svg11.dtd">
<svg width="100%" height="100%" viewBox="0 0 100 100" version="1.1" xmlns="http://www.w3.org/2000/svg" xmlns:xlink="http://www.w3.org/1999/xlink" xml:space="preserve" xmlns:serif="http://www.serif.com/" style="fill-rule:evenodd;clip-rule:evenodd;stroke-linejoin:round;stroke-miterlimit:2;">
    <g transform="matrix(1,0,0,1,-600,-300)">
        <g id="arstechnica" transform="matrix(1,0,0,1,600,300)">
            <rect x="0" y="0" width="100" height="100" style="fill:none;"/>
            <g id="Layer-1" serif:id="Layer 1" transform="matrix(0.000116,0,0,0.000115,16.004035,10.827545)">
                <g transform="matrix(4978.064011,0,0,5014.574454,-66167.394399,-21672.843946)">
                    <circle cx="72.2" cy="72.2" r="72.2" style="fill:rgb(255,78,0);"/>
                </g>
                <g transform="matrix(4978.064011,0,0,5014.574454,-66167.394399,-21672.843946)">
                    <g transform="matrix(1,0,0,1,-743.7,752.2)">
                        <path d="M790.3,-658l-0.9,-5.9c-3.99,4.385 -9.671,6.862 -15.6,6.8c-8,0 -13,-4.8 -13,-12.3c0,-11 9.4,-15.4 27.9,-17.3l0,-1.9c0,-5.6 -3.3,-7.5 -8.4,-7.5c-5.1,0 -10.5,1.7 -15.3,3.8l-1.1,-7.1c5.3,-2.1 10.3,-3.7 17.1,-3.7c10.7,0 15.9,4.3 15.9,14.2l0,30.9l-6.7,0l0.1,0Zm-1.6,-22.4c-16.3,1.6 -19.7,6 -19.7,10.6c0,4.6 2.4,5.9 6.6,5.9c4.2,0 9.4,-2.4 13.1,-6.2l0,-10.3Z" style="fill:white;fill-rule:nonzero;"/>
                    </g>
                    <g transform="matrix(1,0,0,1,-743.7,752.2)">
                        <path d="M816.1,-684.1l0,26.1l-8.2,0l0,-44.1l6.6,0l1.4,9c3.1,-5 8.2,-9.5 15.5,-9.9l1.3,7.9c-7.4,0.3 -13.6,5.2 -16.6,11Z" style="fill:white;fill-rule:nonzero;"/>
                    </g>
                    <g transform="matrix(1,0,0,1,-743.7,752.2)">
                        <path d="M853.4,-657.1c-5.62,-0.131 -11.132,-1.569 -16.1,-4.2l1.2,-7.8c4.562,3.242 10.004,5.021 15.6,5.1c5.6,0 9,-2.1 9,-5.8c0,-3.7 -2.5,-5.6 -10.5,-7.5c-10.4,-2.6 -14.5,-5.7 -14.5,-13.6c0,-7.9 5.9,-12.2 15.6,-12.2c4.99,-0.024 9.93,0.998 14.5,3l-1.3,7.8c-4.078,-2.367 -8.686,-3.674 -13.4,-3.8c-5,0 -7.6,1.9 -7.6,5.1c0,3.2 2.2,4.6 9.2,6.4c10.9,2.8 15.8,5.9 15.8,14.3c0,8.4 -6.1,13.2 -17.5,13.2Z" style="fill:white;fill-rule:nonzero;"/>
                    </g>
                </g>
            </g>
        </g>
    </g>
</svg>
