<?xml version="1.0" encoding="UTF-8" standalone="no"?>
<!DOCTYPE svg PUBLIC "-//W3C//DTD SVG 1.1//EN" "http://www.w3.org/Graphics/SVG/1.1/DTD/svg11.dtd">
<svg width="100%" height="100%" viewBox="0 0 100 100" version="1.1" xmlns="http://www.w3.org/2000/svg" xmlns:xlink="http://www.w3.org/1999/xlink" xml:space="preserve" xmlns:serif="http://www.serif.com/" style="fill-rule:evenodd;clip-rule:evenodd;stroke-linejoin:round;stroke-miterlimit:2;">
    <g transform="matrix(1,0,0,1,-300,-300)">
        <g id="bbciplayer" transform="matrix(1,0,0,1,300,300)">
            <rect x="0" y="0" width="100" height="100" style="fill:none;"/>
            <g id="Layer-1" serif:id="Layer 1" transform="matrix(0.000014,0,0,0.000014,19.18471,22.30315)">
                <g id="path869-6-9" transform="matrix(22731.953207,0,0,22898.675387,-364877.865527,-974483.313171)">
                    <path d="M0,50.726l-0,152.407l53.826,-0l0,-152.407l-53.826,0Z" style="fill:rgb(220,40,118);fill-rule:nonzero;"/>
                </g>
                <g id="path869-6-1" transform="matrix(22731.953207,0,0,22898.675387,-364877.865527,-974483.313171)">
                    <path d="M192.935,131.04l-131.988,76.203l26.913,46.615l131.988,-76.203l-26.913,-46.615Z" style="fill:rgb(176,13,90);fill-rule:nonzero;"/>
                </g>
                <g id="path869-6-0-7" transform="matrix(22731.953207,0,0,22898.675387,-364877.865527,-974483.313171)">
                    <path d="M192.935,122.818l-131.988,-76.203l26.913,-46.615l131.988,76.203l-26.913,46.615Z" style="fill:rgb(255,76,150);fill-rule:nonzero;"/>
                </g>
            </g>
        </g>
    </g>
</svg>
