<?xml version="1.0" encoding="UTF-8" standalone="no"?>
<!DOCTYPE svg PUBLIC "-//W3C//DTD SVG 1.1//EN" "http://www.w3.org/Graphics/SVG/1.1/DTD/svg11.dtd">
<svg width="100%" height="100%" viewBox="0 0 100 100" version="1.1" xmlns="http://www.w3.org/2000/svg" xmlns:xlink="http://www.w3.org/1999/xlink" xml:space="preserve" xmlns:serif="http://www.serif.com/" style="fill-rule:evenodd;clip-rule:evenodd;">
    <g transform="matrix(1,0,0,1,-150,0)">
        <g id="freshrss" transform="matrix(1,0,0,1,150,0)">
            <rect x="0" y="0" width="100" height="100" style="fill:none;"/>
            <clipPath id="_clip1">
                <rect x="0" y="0" width="100" height="100"/>
            </clipPath>
            <g clip-path="url(#_clip1)">
                <g id="Layer-1" serif:id="Layer 1" transform="matrix(0.212801,0,0,0.212801,-14.042168,-4.888706)">
                    <g transform="matrix(1.539399,0,0,1.539399,103.900693,60.890926)">
                        <circle cx="128" cy="128" r="33" style="fill:rgb(0,98,190);"/>
                    </g>
                    <g transform="matrix(1.539399,0,0,1.539399,103.900693,60.890926)">
                        <path d="M12,128c-0,-63.636 52.364,-116 116,-116c63.636,-0 116,52.364 116,116c0,63.636 -52.364,116 -116,116" style="fill:none;fill-rule:nonzero;stroke:rgb(0,98,190);stroke-opacity:0.3;stroke-width:24px;"/>
                        <path d="M54,128c-0,-40.595 33.405,-74 74,-74c40.595,-0 74,33.405 74,74c0,40.595 -33.405,74 -74,74" style="fill:none;fill-rule:nonzero;stroke:rgb(0,98,190);stroke-opacity:0.3;stroke-width:24px;"/>
                    </g>
                    <g transform="matrix(1.539399,0,0,1.539399,103.900693,60.890926)">
                        <path d="M128,24l0,-24c70.219,-0 128,57.781 128,128l-24,0c0,-57.053 -46.947,-104 -104,-104Z" style="fill:rgb(0,98,190);"/>
                    </g>
                    <g transform="matrix(1.539399,0,0,1.539399,103.900693,60.890926)">
                        <path d="M128,66l0,-24c47.178,-0 86,38.822 86,86l-24,0c0,-34.012 -27.988,-62 -62,-62Z" style="fill:rgb(0,98,190);"/>
                    </g>
                </g>
            </g>
        </g>
    </g>
</svg>
