<?xml version="1.0" encoding="UTF-8" standalone="no"?>
<!DOCTYPE svg PUBLIC "-//W3C//DTD SVG 1.1//EN" "http://www.w3.org/Graphics/SVG/1.1/DTD/svg11.dtd">
<svg width="100%" height="100%" viewBox="0 0 100 100" version="1.1" xmlns="http://www.w3.org/2000/svg" xmlns:xlink="http://www.w3.org/1999/xlink" xml:space="preserve" xmlns:serif="http://www.serif.com/" style="fill-rule:evenodd;clip-rule:evenodd;stroke-linejoin:round;stroke-miterlimit:2;">
    <g transform="matrix(1,0,0,1,-450,-150)">
        <g id="googlecalendar" transform="matrix(1,0,0,1,450,150)">
            <rect x="0" y="0" width="100" height="100" style="fill:none;"/>
            <g id="Layer-1" serif:id="Layer 1" transform="matrix(0.000075,0,0,0.000075,29.484347,26.120664)">
                <g transform="matrix(4978.064011,0,0,5014.574454,-206796.707085,-163333.569344)">
                    <path d="M148.882,43.618l-47.368,-5.263l-57.895,5.263l-5.264,52.632l5.263,52.632l52.632,6.579l52.632,-6.579l5.263,-53.947l-5.263,-51.317Z" style="fill:white;fill-rule:nonzero;"/>
                </g>
                <g transform="matrix(4978.064011,0,0,5014.574454,-206796.707085,-163333.569344)">
                    <path d="M65.211,125.276c-3.934,-2.658 -6.658,-6.539 -8.145,-11.671l9.132,-3.763c0.829,3.158 2.276,5.605 4.342,7.342c2.053,1.737 4.553,2.592 7.474,2.592c2.987,0 5.553,-0.908 7.697,-2.724c2.144,-1.816 3.224,-4.132 3.224,-6.934c0,-2.868 -1.132,-5.211 -3.395,-7.026c-2.263,-1.815 -5.105,-2.724 -8.5,-2.724l-5.276,0l0,-9.039l4.736,0c2.921,0 5.382,-0.789 7.382,-2.368c2,-1.579 3,-3.737 3,-6.487c0,-2.447 -0.895,-4.395 -2.684,-5.855c-1.789,-1.46 -4.053,-2.197 -6.803,-2.197c-2.684,0 -4.816,0.711 -6.395,2.145c-1.579,1.434 -2.724,3.197 -3.447,5.276l-9.039,-3.763c1.197,-3.395 3.395,-6.395 6.618,-8.987c3.224,-2.592 7.342,-3.895 12.342,-3.895c3.697,0 7.026,0.711 9.974,2.145c2.947,1.434 5.263,3.421 6.934,5.947c1.671,2.539 2.5,5.382 2.5,8.539c0,3.224 -0.776,5.947 -2.329,8.184c-1.553,2.237 -3.461,3.947 -5.724,5.145l0,0.539c2.987,1.25 5.421,3.158 7.342,5.724c1.908,2.566 2.868,5.632 2.868,9.211c0,3.579 -0.908,6.776 -2.724,9.579c-1.816,2.803 -4.329,5.013 -7.513,6.618c-3.197,1.605 -6.789,2.421 -10.776,2.421c-4.618,0.013 -8.881,-1.316 -12.815,-3.974Z" style="fill:rgb(26,115,232);fill-rule:nonzero;"/>
                </g>
                <g transform="matrix(4978.064011,0,0,5014.574454,-206796.707085,-163333.569344)">
                    <path d="M121.25,79.961l-9.974,7.25l-5.013,-7.605l17.987,-12.974l6.895,0l0,61.197l-9.895,0l0,-47.868Z" style="fill:rgb(26,115,232);fill-rule:nonzero;"/>
                </g>
                <g transform="matrix(4978.064011,0,0,5014.574454,-206796.707085,-163333.569344)">
                    <path d="M148.882,196.25l47.368,-47.368l-23.684,-10.526l-23.684,10.526l-10.526,23.684l10.526,23.684Z" style="fill:rgb(234,67,53);fill-rule:nonzero;"/>
                </g>
                <g transform="matrix(4978.064011,0,0,5014.574454,-206796.707085,-163333.569344)">
                    <path d="M33.092,172.566l10.526,23.684l105.263,0l0,-47.368l-105.263,0l-10.526,23.684Z" style="fill:rgb(52,168,83);fill-rule:nonzero;"/>
                </g>
                <g transform="matrix(4978.064011,0,0,5014.574454,-206796.707085,-163333.569344)">
                    <path d="M12.039,-3.75c-8.723,0 -15.789,7.066 -15.789,15.789l0,136.842l23.684,10.526l23.684,-10.526l0,-105.263l105.263,0l10.526,-23.684l-10.525,-23.684l-136.843,0Z" style="fill:rgb(66,133,244);fill-rule:nonzero;"/>
                </g>
                <g transform="matrix(4978.064011,0,0,5014.574454,-206796.707085,-163333.569344)">
                    <path d="M-3.75,148.882l0,31.579c0,8.724 7.066,15.789 15.789,15.789l31.579,0l0,-47.368l-47.368,0Z" style="fill:rgb(24,128,56);fill-rule:nonzero;"/>
                </g>
                <g transform="matrix(4978.064011,0,0,5014.574454,-206796.707085,-163333.569344)">
                    <path d="M148.882,43.618l0,105.263l47.368,0l0,-105.263l-23.684,-10.526l-23.684,10.526Z" style="fill:rgb(251,188,4);fill-rule:nonzero;"/>
                </g>
                <g transform="matrix(4978.064011,0,0,5014.574454,-206796.707085,-163333.569344)">
                    <path d="M196.25,43.618l0,-31.579c0,-8.724 -7.066,-15.789 -15.789,-15.789l-31.579,0l0,47.368l47.368,0Z" style="fill:rgb(25,103,210);fill-rule:nonzero;"/>
                </g>
            </g>
        </g>
    </g>
</svg>
