<?xml version="1.0" encoding="UTF-8" standalone="no"?>
<!DOCTYPE svg PUBLIC "-//W3C//DTD SVG 1.1//EN" "http://www.w3.org/Graphics/SVG/1.1/DTD/svg11.dtd">
<svg width="100%" height="100%" viewBox="0 0 100 100" version="1.1" xmlns="http://www.w3.org/2000/svg" xmlns:xlink="http://www.w3.org/1999/xlink" xml:space="preserve" xmlns:serif="http://www.serif.com/" style="fill-rule:evenodd;clip-rule:evenodd;stroke-linejoin:round;stroke-miterlimit:2;">
    <g transform="matrix(1,0,0,1,-450,-300)">
        <g id="googledrive" transform="matrix(1,0,0,1,450,299.999999)">
            <rect x="0" y="0" width="100" height="100" style="fill:none;"/>
            <g transform="matrix(0.961538,0,0,0.961538,8.028846,12.5)">
                <path d="M6.6,66.85l3.85,6.65c0.8,1.4 1.95,2.5 3.3,3.3l16.15,-23.8l-2.4,-0l1.293,-2.241l-28.793,2.241c0,1.55 0.4,3.1 1.2,4.5l5.4,9.35Z" style="fill:rgb(0,102,218);fill-rule:nonzero;"/>
                <path d="M43.65,25l0.788,-1.364l-14.538,-22.436c-1.35,0.8 -2.5,1.9 -3.3,3.3l-25.4,44c-0.785,1.37 -1.199,2.921 -1.2,4.5l27.5,0l16.15,-28Z" style="fill:rgb(0,172,71);fill-rule:nonzero;"/>
                <path d="M73.55,76.8c1.35,-0.8 2.5,-1.9 3.3,-3.3l1.6,-2.75l7.65,-13.25c0.8,-1.4 1.2,-2.95 1.2,-4.5l-28.06,-0.971l0.499,0.971l-2.339,-0l16.15,23.8Z" style="fill:rgb(234,67,53);fill-rule:nonzero;"/>
                <path d="M43.65,25l0.666,1.155l13.084,-24.955c-1.35,-0.8 -2.9,-1.2 -4.5,-1.2l-18.5,0c-1.6,0 -3.15,0.45 -4.5,1.2l13.75,23.8Z" style="fill:rgb(0,131,45);fill-rule:nonzero;"/>
                <path d="M59.8,53l-32.3,0l-13.75,23.8c1.35,0.8 2.9,1.2 4.5,1.2l50.8,0c1.6,0 3.15,-0.45 4.5,-1.2l-13.75,-23.8Z" style="fill:rgb(38,132,252);fill-rule:nonzero;"/>
                <path d="M73.4,26.5l-12.7,-22c-0.8,-1.4 -1.95,-2.5 -3.3,-3.3l-13.75,23.8l16.15,28l27.45,0c0,-1.55 -0.4,-3.1 -1.2,-4.5l-12.65,-22Z" style="fill:rgb(255,186,0);fill-rule:nonzero;"/>
            </g>
        </g>
    </g>
</svg>
