<?xml version="1.0" encoding="UTF-8" standalone="no"?>
<!DOCTYPE svg PUBLIC "-//W3C//DTD SVG 1.1//EN" "http://www.w3.org/Graphics/SVG/1.1/DTD/svg11.dtd">
<svg width="100%" height="100%" viewBox="0 0 100 100" version="1.1" xmlns="http://www.w3.org/2000/svg" xmlns:xlink="http://www.w3.org/1999/xlink" xml:space="preserve" xmlns:serif="http://www.serif.com/" style="fill-rule:evenodd;clip-rule:evenodd;stroke-linejoin:round;stroke-miterlimit:2;">
    <g transform="matrix(1,0,0,1,-150,-150)">
        <g id="googlephotos" transform="matrix(1,0,0,1,150,150)">
            <rect x="0" y="0" width="100" height="100" style="fill:none;"/>
            <g id="Layer-1" serif:id="Layer 1" transform="matrix(0.000056,0,0,0.000055,10.962241,22.867803)">
                <g transform="matrix(4289.047775,0,0,4320.50479,-47357.13679,-263744.238753)">
                    <path d="M87.5,79.5c48.3,0 87.5,39.2 87.5,87.5l0,7.9l-167.1,0c-4.4,0 -7.9,-3.6 -7.9,-7.9c0,-48.3 39.2,-87.4 87.5,-87.5Z" style="fill:rgb(251,187,5);fill-rule:nonzero;"/>
                </g>
                <g transform="matrix(4289.047775,0,0,4320.50479,-47357.13679,-263744.238753)">
                    <path d="M270.5,87.5c0,48.3 -39.2,87.5 -87.5,87.5l-8,0l0,-167.1c0,-4.4 3.6,-7.9 7.9,-7.9c48.4,0 87.6,39.2 87.6,87.5Z" style="fill:rgb(233,67,53);fill-rule:nonzero;"/>
                </g>
                <g transform="matrix(4289.047775,0,0,4320.50479,-47357.13679,-263744.238753)">
                    <path d="M262.5,270.5c-48.3,0 -87.5,-39.2 -87.5,-87.5l0,-8l167.1,0c4.4,0 7.9,3.6 7.9,7.9c0,48.4 -39.1,87.6 -87.5,87.6Z" style="fill:rgb(66,133,244);fill-rule:nonzero;"/>
                </g>
                <g transform="matrix(4289.047775,0,0,4320.50479,-47357.13679,-263744.238753)">
                    <path d="M79.5,262.5c0,-48.3 39.2,-87.5 87.5,-87.5l7.9,0l0,167.1c0,4.4 -3.6,7.9 -7.9,7.9c-48.3,0 -87.5,-39.2 -87.5,-87.5Z" style="fill:rgb(15,157,88);fill-rule:nonzero;"/>
                </g>
            </g>
        </g>
    </g>
</svg>
