<?xml version="1.0" encoding="UTF-8" standalone="no"?>
<!DOCTYPE svg PUBLIC "-//W3C//DTD SVG 1.1//EN" "http://www.w3.org/Graphics/SVG/1.1/DTD/svg11.dtd">
<svg width="100%" height="100%" viewBox="0 0 100 100" version="1.1" xmlns="http://www.w3.org/2000/svg" xmlns:xlink="http://www.w3.org/1999/xlink" xml:space="preserve" xmlns:serif="http://www.serif.com/" style="fill-rule:evenodd;clip-rule:evenodd;stroke-linejoin:round;stroke-miterlimit:2;">
    <g transform="matrix(1,0,0,1,0,-450)">
        <g id="homeassistant" transform="matrix(1,0,0,1,0,450)">
            <rect x="0" y="0" width="100" height="100" style="fill:none;"/>
            <g transform="matrix(0.3125,0,0,0.3125,12.5,8.681459)">
                <g id="Layer-1" serif:id="Layer 1">
                    <path d="M229.39,109.153l-98.78,-98.781c-5.83,-5.83 -15.38,-5.83 -21.21,-0l-98.79,98.781c-5.83,5.83 -10.61,17.359 -10.61,25.609l0,90c0,8.25 6.75,15 15,15l92.27,0l-40.63,-40.63c-2.09,0.72 -4.32,1.13 -6.64,1.13c-11.3,0 -20.5,-9.2 -20.5,-20.5c0,-11.3 9.2,-20.5 20.5,-20.5c11.3,0 20.5,9.2 20.5,20.5c0,2.33 -0.41,4.56 -1.13,6.65l31.63,31.63l0,-115.88c-6.8,-3.34 -11.5,-10.32 -11.5,-18.39c0,-11.3 9.2,-20.5 20.5,-20.5c11.3,0 20.5,9.2 20.5,20.5c0,8.07 -4.7,15.05 -11.5,18.39l0,81.27l31.46,-31.46c-0.62,-1.96 -0.96,-4.04 -0.96,-6.2c0,-11.3 9.2,-20.5 20.5,-20.5c11.3,0 20.5,9.2 20.5,20.5c0,11.3 -9.2,20.5 -20.5,20.5c-2.5,0 -4.88,-0.47 -7.09,-1.29l-43.91,43.91l0,30.88l96,0c8.25,0 15,-6.75 15,-15l0,-90c0,-8.25 -4.77,-19.77 -10.61,-25.61l0,-0.009Z" style="fill:white;fill-rule:nonzero;"/>
                </g>
            </g>
        </g>
    </g>
</svg>
