<?xml version="1.0" encoding="UTF-8" standalone="no"?>
<!DOCTYPE svg PUBLIC "-//W3C//DTD SVG 1.1//EN" "http://www.w3.org/Graphics/SVG/1.1/DTD/svg11.dtd">
<svg width="100%" height="100%" viewBox="0 0 101 100" version="1.1" xmlns="http://www.w3.org/2000/svg" xmlns:xlink="http://www.w3.org/1999/xlink" xml:space="preserve" xmlns:serif="http://www.serif.com/" style="fill-rule:evenodd;clip-rule:evenodd;stroke-linejoin:round;stroke-miterlimit:2;">
    <g transform="matrix(1,0,0,1,-578,0)">
        <g id="karakeep" transform="matrix(1,0,0,1,578.562654,0)">
            <rect x="0" y="0" width="100" height="100" style="fill:none;"/>
            <g transform="matrix(0.787236,0,0,0.790806,-8.849848,-8.559152)">
                <g id="Layer-1" serif:id="Layer 1">
                    <path d="M116.76,26.63l-84.01,0c-3.089,0 -5.63,2.541 -5.63,5.63l0,83.58c0,3.089 2.541,5.63 5.63,5.63l84.01,0c3.089,0 5.63,-2.541 5.63,-5.63l0,-83.58c0,-3.089 -2.541,-5.63 -5.63,-5.63m-48.01,80.91c0,0.81 -0.66,1.47 -1.47,1.47l-25.9,0c-0.81,0 -1.47,-0.66 -1.47,-1.47l0,-67.29c0,-0.81 0.66,-1.47 1.47,-1.47l25.49,0c0.81,0 1.47,0.66 1.47,1.47l0,25.61c0,0 -0.14,11.02 0.41,19.67l0,22.01Zm40.44,0c0,1.17 -1.3,1.87 -2.28,1.23l-11.81,-7.72c-0.51,-0.33 -1.17,-0.32 -1.67,0.04l-10.35,7.49c-0.43,0.31 -0.94,0.34 -1.37,0.17c-0.38,-0.27 -0.63,-0.7 -0.63,-1.2l0,-52.26c1.4,-0.28 2.96,-0.42 4.76,-0.42c8.85,0 23.35,4.99 23.35,19.09l0,33.58Z" style="fill-rule:nonzero;"/>
                </g>
            </g>
        </g>
    </g>
</svg>
