<?xml version="1.0" encoding="UTF-8" standalone="no"?>
<!DOCTYPE svg PUBLIC "-//W3C//DTD SVG 1.1//EN" "http://www.w3.org/Graphics/SVG/1.1/DTD/svg11.dtd">
<svg width="100%" height="100%" viewBox="0 0 100 100" version="1.1" xmlns="http://www.w3.org/2000/svg" xmlns:xlink="http://www.w3.org/1999/xlink" xml:space="preserve" xmlns:serif="http://www.serif.com/" style="fill-rule:evenodd;clip-rule:evenodd;stroke-linejoin:round;stroke-miterlimit:2;">
    <g transform="matrix(1,0,0,1,-300,-600)">
        <g id="keep" transform="matrix(1,0,0,1,300,600)">
            <rect x="0" y="0" width="100" height="100" style="fill:none;"/>
            <g transform="matrix(2.45098,0,0,2.45098,-28.432298,-65.196078)">
                <path d="M39,64l-14,0l0,-5l14,0l0,5Zm-0.075,-10l-13.85,0c-3.65,-2.3 -6.075,-6.365 -6.075,-11c0,-7.18 5.82,-13 13,-13c7.18,0 13,5.82 13,13c0,4.635 -2.425,8.7 -6.075,11l0,0Z" style="fill:white;fill-rule:nonzero;"/>
            </g>
        </g>
    </g>
</svg>
