<?xml version="1.0" encoding="UTF-8" standalone="no"?>
<!DOCTYPE svg PUBLIC "-//W3C//DTD SVG 1.1//EN" "http://www.w3.org/Graphics/SVG/1.1/DTD/svg11.dtd">
<svg width="100%" height="100%" viewBox="0 0 100 100" version="1.1" xmlns="http://www.w3.org/2000/svg" xmlns:xlink="http://www.w3.org/1999/xlink" xml:space="preserve" xmlns:serif="http://www.serif.com/" style="fill-rule:evenodd;clip-rule:evenodd;stroke-linejoin:round;stroke-miterlimit:2;">
    <g transform="matrix(1,0,0,1,-600,-450)">
        <g id="mealie" transform="matrix(1,0,0,1,600,450)">
            <rect x="0" y="0" width="100" height="100" style="fill:none;"/>
            <g transform="matrix(3.85976,0,0,3.85976,3.682197,3.470597)">
                <path d="M8.1,13.34l-4.19,-4.18c-1.548,-1.554 -1.548,-4.106 -0,-5.66l7.02,7l-2.83,2.84Zm5.31,-0.34l6.88,6.88l-1.41,1.41l-6.88,-6.88l-6.88,6.88l-1.41,-1.41l9.65,-9.66l-0.2,-0.22c-0.374,-0.372 -0.585,-0.878 -0.585,-1.405c0,-0.527 0.211,-1.033 0.585,-1.405l4.34,-4.37l0.93,0.92l-3.24,3.26l0.96,0.94l3.24,-3.25l0.92,0.92l-3.25,3.24l0.94,0.96l3.26,-3.25l0.92,0.94l-4.37,4.34c-0.78,0.78 -2.04,0.78 -2.81,0l-0.22,-0.2l-1.37,1.36Z" style="fill:white;fill-rule:nonzero;"/>
            </g>
        </g>
    </g>
</svg>
