<?xml version="1.0" encoding="UTF-8" standalone="no"?>
<!DOCTYPE svg PUBLIC "-//W3C//DTD SVG 1.1//EN" "http://www.w3.org/Graphics/SVG/1.1/DTD/svg11.dtd">
<svg width="100%" height="100%" viewBox="0 0 100 100" version="1.1" xmlns="http://www.w3.org/2000/svg" xmlns:xlink="http://www.w3.org/1999/xlink" xml:space="preserve" xmlns:serif="http://www.serif.com/" style="fill-rule:evenodd;clip-rule:evenodd;stroke-linejoin:round;stroke-miterlimit:2;">
    <g transform="matrix(1,0,0,1,0,-300)">
        <g id="protonpass" transform="matrix(1,0,0,1,0,300)">
            <rect x="0" y="0" width="100" height="100" style="fill:none;"/>
            <g id="Layer-1" serif:id="Layer 1">
            </g>
            <g transform="matrix(0.090954,0,0,0.090954,-48.057935,-43.864448)">
                <path d="M895.514,689.635c63.915,-63.915 95.872,-95.872 132.726,-107.845c32.41,-10.532 67.33,-10.532 99.74,0c36.85,11.973 68.81,43.931 132.73,107.845l159.77,159.771c63.91,63.915 95.87,95.872 107.84,132.723c10.53,32.411 10.53,67.331 0,99.751c-11.97,36.85 -43.93,68.8 -107.84,132.72l-159.77,159.77c-63.92,63.91 -95.88,95.87 -132.73,107.84c-32.41,10.54 -67.33,10.54 -99.74,0c-36.854,-11.97 -68.811,-43.93 -132.726,-107.84l-30.039,-33.68c-18.177,-20.38 -27.266,-30.57 -33.746,-42.16c-5.748,-10.27 -9.964,-21.34 -12.517,-32.83c-2.878,-12.96 -2.878,-26.62 -2.878,-53.93l-0.001,-359.54c0,-27.308 0,-40.962 2.879,-53.924c2.552,-11.496 6.769,-22.559 12.517,-32.837c6.48,-11.589 15.569,-21.778 33.746,-42.157l30.039,-33.677Z" style="fill:url(#_Radial1);fill-rule:nonzero;"/>
            </g>
            <g transform="matrix(0.090954,0,0,0.090954,-48.057935,-43.864448)">
                <path d="M895.514,689.635c63.915,-63.915 95.872,-95.872 132.726,-107.845c32.41,-10.532 67.33,-10.532 99.74,0c36.85,11.973 68.81,43.931 132.73,107.845l159.77,159.771c63.91,63.915 95.87,95.872 107.84,132.723c10.53,32.411 10.53,67.331 0,99.751c-11.97,36.85 -43.93,68.8 -107.84,132.72l-159.77,159.77c-63.92,63.91 -95.88,95.87 -132.73,107.84c-32.41,10.54 -67.33,10.54 -99.74,0c-36.854,-11.97 -68.811,-43.93 -132.726,-107.84l-30.039,-33.68c-18.177,-20.38 -27.266,-30.57 -33.746,-42.16c-5.748,-10.27 -9.964,-21.34 -12.517,-32.83c-2.878,-12.96 -2.878,-26.62 -2.878,-53.93l-0.001,-359.54c0,-27.308 0,-40.962 2.879,-53.924c2.552,-11.496 6.769,-22.559 12.517,-32.837c6.48,-11.589 15.569,-21.778 33.746,-42.157l30.039,-33.677Z" style="fill:url(#_Linear2);fill-rule:nonzero;"/>
            </g>
            <g transform="matrix(0.090954,0,0,0.090954,-48.057935,-43.864448)">
                <path d="M884.103,701.036c31.958,-31.957 47.936,-47.936 66.361,-53.922c16.208,-5.266 33.666,-5.266 49.876,0c18.42,5.986 34.4,21.965 66.36,53.922l239.66,239.657c31.95,31.957 47.93,47.936 53.92,66.357c5.26,16.21 5.26,33.67 0,49.88c-5.99,18.42 -21.97,34.4 -53.92,66.36l-239.66,239.66c-31.96,31.95 -47.94,47.93 -66.36,53.92c-16.21,5.26 -33.668,5.26 -49.876,0c-18.425,-5.99 -34.403,-21.97 -66.361,-53.92l-148.359,-148.36c-63.914,-63.92 -95.871,-95.88 -107.845,-132.73c-10.532,-32.41 -10.532,-67.33 0,-99.743c11.974,-36.85 43.931,-68.807 107.845,-132.722l148.359,-148.359Z" style="fill:url(#_Radial3);fill-rule:nonzero;"/>
            </g>
        </g>
    </g>
    <defs>
        <radialGradient id="_Radial1" cx="0" cy="0" r="1" gradientUnits="userSpaceOnUse" gradientTransform="matrix(403.684657,-649.607466,1015.850142,631.27833,896.514,1507.97)"><stop offset="0" style="stop-color:rgb(255,213,128);stop-opacity:1"/><stop offset="0.09" style="stop-color:rgb(246,197,146);stop-opacity:1"/><stop offset="0.21" style="stop-color:rgb(235,182,162);stop-opacity:1"/><stop offset="0.32" style="stop-color:rgb(223,165,175);stop-opacity:1"/><stop offset="0.43" style="stop-color:rgb(211,151,190);stop-opacity:1"/><stop offset="0.53" style="stop-color:rgb(196,134,203);stop-opacity:1"/><stop offset="0.65" style="stop-color:rgb(181,120,217);stop-opacity:1"/><stop offset="0.77" style="stop-color:rgb(161,102,229);stop-opacity:1"/><stop offset="0.89" style="stop-color:rgb(139,87,242);stop-opacity:1"/><stop offset="1" style="stop-color:rgb(112,76,255);stop-opacity:1"/></radialGradient>
        <linearGradient id="_Linear2" x1="0" y1="0" x2="1" y2="0" gradientUnits="userSpaceOnUse" gradientTransform="matrix(178.182,1087.625,-1087.625,178.182,864.958,391.965)"><stop offset="0" style="stop-color:rgb(109,74,255);stop-opacity:1"/><stop offset="0.39" style="stop-color:rgb(179,159,251);stop-opacity:0.98"/><stop offset="1" style="stop-color:rgb(255,232,219);stop-opacity:0.8"/></linearGradient>
        <radialGradient id="_Radial3" cx="0" cy="0" r="1" gradientUnits="userSpaceOnUse" gradientTransform="matrix(324.702819,-522.510261,817.099327,507.76889,829.333,1414.83)"><stop offset="0" style="stop-color:rgb(255,213,128);stop-opacity:1"/><stop offset="0.09" style="stop-color:rgb(246,197,146);stop-opacity:1"/><stop offset="0.21" style="stop-color:rgb(235,182,162);stop-opacity:1"/><stop offset="0.32" style="stop-color:rgb(223,165,175);stop-opacity:1"/><stop offset="0.43" style="stop-color:rgb(211,151,190);stop-opacity:1"/><stop offset="0.53" style="stop-color:rgb(196,134,203);stop-opacity:1"/><stop offset="0.65" style="stop-color:rgb(181,120,217);stop-opacity:1"/><stop offset="0.77" style="stop-color:rgb(161,102,229);stop-opacity:1"/><stop offset="0.89" style="stop-color:rgb(139,87,242);stop-opacity:1"/><stop offset="1" style="stop-color:rgb(112,76,255);stop-opacity:1"/></radialGradient>
    </defs>
</svg>
