<?xml version="1.0" encoding="UTF-8" standalone="no"?>
<!DOCTYPE svg PUBLIC "-//W3C//DTD SVG 1.1//EN" "http://www.w3.org/Graphics/SVG/1.1/DTD/svg11.dtd">
<svg width="100%" height="100%" viewBox="0 0 100 100" version="1.1" xmlns="http://www.w3.org/2000/svg" xmlns:xlink="http://www.w3.org/1999/xlink" xml:space="preserve" xmlns:serif="http://www.serif.com/" style="fill-rule:evenodd;clip-rule:evenodd;stroke-linejoin:round;stroke-miterlimit:2;">
    <g transform="matrix(1,0,0,1,-150,-450)">
        <g id="theguardian" transform="matrix(1,0,0,1,150,450)">
            <rect x="0" y="0" width="100" height="100" style="fill:none;"/>
            <g transform="matrix(0.673673,0,0,0.673673,-0.525465,-0.141471)">
                <g id="Layer-1" serif:id="Layer 1">
                    <path d="M13.15,74.43c-0,-33.93 27.92,-61.85 61.85,-61.85c33.93,-0 61.85,27.92 61.85,61.85c0,33.93 -27.92,61.85 -61.85,61.85c-33.93,0 -61.85,-27.92 -61.85,-61.85Zm92.9,6.23l6.35,-2.84l0,-1.95l-34.52,0l0,1.77l6.74,2.36l0,40.44c8.73,-1.82 17.86,-7.13 21.43,-10.53l0,-29.25Zm-25.49,-51.6l0.19,-0l0,-2c-21.45,-1.44 -50.75,14.55 -50.33,47.42c-0.42,32.78 28.88,48.76 50.33,47.33l0,-2l-0.19,0c-14.31,0 -22.5,-19.29 -22.09,-45.41c-0.41,-26.04 7.78,-45.34 22.09,-45.34Zm26.08,8.61c-3.59,-3.91 -13.18,-9.42 -21.57,-10.7l0,2l19.51,26.77l2.06,0l0,-18.07Z" style="fill:white;"/>
                </g>
            </g>
        </g>
    </g>
</svg>
