<?xml version="1.0" encoding="UTF-8" standalone="no"?>
<!DOCTYPE svg PUBLIC "-//W3C//DTD SVG 1.1//EN" "http://www.w3.org/Graphics/SVG/1.1/DTD/svg11.dtd">
<svg width="100%" height="100%" viewBox="0 0 100 100" version="1.1" xmlns="http://www.w3.org/2000/svg" xmlns:xlink="http://www.w3.org/1999/xlink" xml:space="preserve" xmlns:serif="http://www.serif.com/" style="fill-rule:evenodd;clip-rule:evenodd;stroke-linejoin:round;stroke-miterlimit:2;">
    <g transform="matrix(1,0,0,1,-600,-150)">
        <g id="unifi" transform="matrix(1,0,0,1,600,150)">
            <rect x="0" y="0" width="100" height="100" style="fill:none;"/>
            <g transform="matrix(0.553385,0,0,0.553385,14.583333,17.640805)">
                <g id="Layer-1" serif:id="Layer 1">
                    <path d="M123.998,0l-7.999,0l0,7.999l7.999,0l0,-7.999Zm-27.988,56.02l0,-16.026l0.004,0.005l15.993,0l0,15.997l15.993,0l0,5.07c0,5.862 -0.498,12.807 -1.644,18.26c-0.642,3.049 -1.615,6.078 -2.756,8.987c-1.169,2.976 -2.516,5.827 -3.982,8.382c-1.931,3.383 -4.172,6.579 -6.695,9.547l-0.136,0.158l-0.224,0.262c-0.617,0.724 -1.227,1.44 -1.898,2.139c-0.783,0.827 -1.588,1.632 -2.415,2.415c-10.237,9.859 -23.575,16.017 -37.521,17.431c-1.678,0.172 -5.047,0.35 -6.729,0.35c-1.687,-0.005 -5.051,-0.178 -6.729,-0.35c-13.946,-1.414 -27.284,-7.577 -37.52,-17.431c-0.827,-0.783 -1.633,-1.588 -2.416,-2.415c-0.704,-0.729 -1.339,-1.477 -1.98,-2.233l-0.003,-0.002l-0.275,-0.324c-2.524,-2.967 -4.765,-6.163 -6.695,-9.547c-1.466,-2.56 -2.813,-5.406 -3.982,-8.382c-1.141,-2.91 -2.114,-5.938 -2.756,-8.986c-1.146,-5.46 -1.644,-12.399 -1.644,-18.26l0,-60.065l31.99,-0l0,55.018c0,0 0,4.218 0.053,5.598l0.012,0.322l0,0.002c0.068,1.785 0.133,3.534 0.319,5.274c0.527,4.94 1.62,9.628 3.872,13.592c0.652,1.145 1.313,2.257 2.104,3.311c4.812,6.417 12.135,11.234 21.27,12.576c1.087,0.158 3.283,0.297 4.38,0.297c1.097,0 3.292,-0.139 4.38,-0.297c9.135,-1.342 16.458,-6.159 21.27,-12.576c0.795,-1.054 1.452,-2.166 2.104,-3.311c2.252,-3.964 3.345,-8.651 3.872,-13.592c0.186,-1.743 0.252,-3.495 0.319,-5.284l0.012,-0.314c0.053,-1.38 0.053,-5.598 0.053,-5.598Zm3.992,-44.02l12,0l0,11.996l15.998,0l0,15.998l-15.998,0l0,-15.993l-12,0l0,-12.001Z" style="fill:white;fill-rule:nonzero;"/>
                </g>
            </g>
        </g>
    </g>
</svg>
