<?xml version="1.0" encoding="UTF-8" standalone="no"?>
<!DOCTYPE svg PUBLIC "-//W3C//DTD SVG 1.1//EN" "http://www.w3.org/Graphics/SVG/1.1/DTD/svg11.dtd">
<svg width="100%" height="100%" viewBox="0 0 100 100" version="1.1" xmlns="http://www.w3.org/2000/svg" xmlns:xlink="http://www.w3.org/1999/xlink" xml:space="preserve" xmlns:serif="http://www.serif.com/" style="fill-rule:evenodd;clip-rule:evenodd;stroke-linejoin:round;stroke-miterlimit:2;">
    <g transform="matrix(1,0,0,1,-450,-150)">
        <g id="vanguard" transform="matrix(1,0,0,1,450,150)">
            <rect x="0" y="0" width="100" height="100" style="fill:none;"/>
            <g transform="matrix(3.760907,0,0,3.760907,13.641435,13.599565)">
                <g id="Layer-1" serif:id="Layer 1">
                    <path d="M0.018,0.275l0,-0.203l6.73,-0l4.83,14.103l3.572,-11.315c0,0 0.73,-1.904 -1.224,-2.658l0,-0.162l5.391,-0l-6.812,19.942l-2.835,-1.093c0,0 -2.296,-0.678 -3.518,-4.122l-4.432,-12.237c0,0 -0.558,-1.977 -1.702,-2.255Z" style="fill:white;"/>
                </g>
            </g>
        </g>
    </g>
</svg>
