<?xml version="1.0" encoding="UTF-8" standalone="no"?>
<!DOCTYPE svg PUBLIC "-//W3C//DTD SVG 1.1//EN" "http://www.w3.org/Graphics/SVG/1.1/DTD/svg11.dtd">
<svg width="100%" height="100%" viewBox="0 0 100 100" version="1.1" xmlns="http://www.w3.org/2000/svg" xmlns:xlink="http://www.w3.org/1999/xlink" xml:space="preserve" xmlns:serif="http://www.serif.com/" style="fill-rule:evenodd;clip-rule:evenodd;stroke-linejoin:round;stroke-miterlimit:2;">
    <rect id="youtube" x="0" y="0" width="100" height="100" style="fill:none;"/>
    <g id="youtube1" serif:id="youtube">
        <g id="Layer-1" serif:id="Layer 1" transform="matrix(0.220663,0,0,0.220663,-16.409722,-6.916529)">
            <g transform="matrix(1,0,0,1,261.5556,198.411)">
                <path d="M0,119.046l102.827,-59.668l-102.827,-59.378l0,119.046Zm-115.28,70.965c-17.09,-4.635 -30.414,-18.248 -35.338,-35.048c-8.11,-30.993 -8.11,-95.585 -8.11,-95.585c0,0 0,-64.592 8.11,-95.295c4.924,-17.089 18.248,-30.414 35.338,-35.048c30.703,-8.4 154.673,-8.4 154.673,-8.4c0,0 124.26,0 154.964,8.4c17.379,4.634 30.413,17.959 35.048,35.048c8.399,30.703 8.399,95.295 8.399,95.295c0,0 0,64.592 -8.399,95.585c-4.635,16.8 -17.669,30.413 -35.048,35.048c-30.704,8.4 -154.964,8.4 -154.964,8.4c0,0 -123.97,0 -154.673,-8.4" style="fill:rgb(255,0,51);fill-rule:nonzero;"/>
            </g>
            <g transform="matrix(1,0,0,1,261.5556,198.411)">
                <path d="M0,119.046l102.827,-59.668l-102.827,-59.378l0,119.046Z" style="fill:white;fill-rule:nonzero;"/>
            </g>
        </g>
    </g>
</svg>
